<svg width="171" height="199" viewBox="0 0 171 199" fill="none" xmlns="http://www.w3.org/2000/svg">
<g filter="url(#filter0_d_254_998)">
<path fill-rule="evenodd" clip-rule="evenodd" d="M69.5 118C62.6 118 57 111.952 57 104.5C57 97.048 62.6 91 69.5 91C76.4 91 82 97.048 82 104.5C82 111.952 76.4 118 69.5 118Z" fill="white"/>
<path fill-rule="evenodd" clip-rule="evenodd" d="M69.5 69C51.008 69 36 84.3829 36 103.337C36 119.155 48.7791 141.747 61.038 159.511C65.1614 165.486 73.8585 165.5 77.9971 159.536C90.3246 141.77 103 119.339 103 103.337C103 84.3829 87.992 69 69.5 69ZM69.5 116C62.6 116 57 110.4 57 103.5C57 96.6 62.6 91 69.5 91C76.4 91 82 96.6 82 103.5C82 110.4 76.4 116 69.5 116Z" fill="#C8425F"/>
<path d="M61.038 159.511L59.8034 160.363L61.038 159.511ZM69.5 67.5C50.1449 67.5 34.5 83.5896 34.5 103.337H37.5C37.5 85.1763 51.8711 70.5 69.5 70.5V67.5ZM34.5 103.337C34.5 111.59 37.815 121.44 42.5697 131.343C47.3426 141.284 53.6485 151.444 59.8034 160.363L62.2726 158.659C56.1685 149.814 49.9555 139.795 45.2741 130.045C40.5745 120.257 37.5 110.902 37.5 103.337H34.5ZM79.2295 160.391C85.4195 151.47 91.7177 141.349 96.4741 131.423C101.213 121.533 104.5 111.679 104.5 103.337H101.5C101.5 110.997 98.4489 120.36 93.7686 130.127C89.1054 139.858 82.9022 149.835 76.7648 158.68L79.2295 160.391ZM104.5 103.337C104.5 83.5896 88.8551 67.5 69.5 67.5V70.5C87.1289 70.5 101.5 85.1763 101.5 103.337H104.5ZM69.5 114.5C63.4284 114.5 58.5 109.572 58.5 103.5H55.5C55.5 111.228 61.7716 117.5 69.5 117.5V114.5ZM58.5 103.5C58.5 97.4284 63.4284 92.5 69.5 92.5V89.5C61.7716 89.5 55.5 95.7716 55.5 103.5H58.5ZM69.5 92.5C75.5716 92.5 80.5 97.4284 80.5 103.5H83.5C83.5 95.7716 77.2284 89.5 69.5 89.5V92.5ZM80.5 103.5C80.5 109.572 75.5716 114.5 69.5 114.5V117.5C77.2284 117.5 83.5 111.228 83.5 103.5H80.5ZM59.8034 160.363C64.5217 167.2 74.4928 167.217 79.2295 160.391L76.7648 158.68C73.2242 163.783 65.8011 163.772 62.2726 158.659L59.8034 160.363Z" fill="white"/>
</g>
<defs>
<filter id="filter0_d_254_998" x="0.5" y="0.5" width="170" height="198" filterUnits="userSpaceOnUse" color-interpolation-filters="sRGB">
<feFlood flood-opacity="0" result="BackgroundImageFix"/>
<feColorMatrix in="SourceAlpha" type="matrix" values="0 0 0 0 0 0 0 0 0 0 0 0 0 0 0 0 0 0 127 0" result="hardAlpha"/>
<feOffset dx="16" dy="-17"/>
<feGaussianBlur stdDeviation="25"/>
<feComposite in2="hardAlpha" operator="out"/>
<feColorMatrix type="matrix" values="0 0 0 0 0.479167 0 0 0 0 0.157726 0 0 0 0 0.227291 0 0 0 0.29 0"/>
<feBlend mode="normal" in2="BackgroundImageFix" result="effect1_dropShadow_254_998"/>
<feBlend mode="normal" in="SourceGraphic" in2="effect1_dropShadow_254_998" result="shape"/>
</filter>
</defs>
</svg>
